<svg width="251" height="333" viewBox="0 0 251 333" fill="none" xmlns="http://www.w3.org/2000/svg">
<path d="M1.50515 80.4151L2.11629 76.0638C6.07173 49.7683 15.5493 24.9521 30.4317 4.80582L33.1668 1.10333L37.6499 2.14752C53.5351 5.84738 65.7245 8.03623 78.4889 8.06507C91.2091 8.09381 104.869 5.97353 123.534 0.592249L125.473 0.0331573L127.413 0.592249C146.077 5.97353 159.738 8.09381 172.458 8.06507C185.222 8.03623 197.412 5.84738 213.297 2.14752L217.78 1.10333L220.515 4.80582C235.397 24.9521 244.875 49.7683 248.831 76.0638L249.442 80.4151L249.651 82.204C258.67 159.337 220.899 250.043 127.349 276.062L125.473 276.584L123.598 276.062C30.0475 250.043 -7.72324 159.337 1.29596 82.204L1.50515 80.4151Z" fill="#D9D9D9"/>
<g filter="url(#filter0_i_2_90)">
<path fill-rule="evenodd" clip-rule="evenodd" d="M125.473 7.31828C87.3179 18.3189 68.0986 16.4267 36.062 8.96504C21.9571 28.0589 12.8506 51.7615 9.03841 77.105H241.908C238.096 51.7615 228.99 28.0589 214.885 8.96504C182.848 16.4267 163.629 18.3189 125.473 7.31828Z" fill="url(#paint0_linear_2_90)"/>
</g>
<g filter="url(#filter1_i_2_90)">
<path fill-rule="evenodd" clip-rule="evenodd" d="M125.473 269.318C214.815 244.47 251.434 157.725 242.698 83.017H8.2486C-0.486998 157.725 36.1314 244.47 125.473 269.318Z" fill="url(#paint1_linear_2_90)"/>
</g>
<g filter="url(#filter2_d_2_90)">
<path d="M48.0454 61.731H43.6431V36.3653H48.0454V61.731ZM45.7918 32.1727H45.7394C44.1672 32.1727 43.0666 30.9673 43.0666 29.395C43.0666 27.7703 44.2196 26.5649 45.7918 26.5649C47.4165 26.5649 48.5171 27.7703 48.5171 29.395C48.5171 30.9673 47.4689 32.1727 45.7918 32.1727ZM76.2805 57.1715L77.119 60.7353C75.6516 61.5214 72.7691 62.2027 69.1005 62.2027C60.0339 62.2027 53.378 56.1233 53.378 44.4362C53.378 32.4871 60.6628 25.936 69.9915 25.936C73.7125 25.936 76.1233 26.7222 77.1714 27.2987L76.1233 30.9148C74.6558 30.1811 72.7167 29.657 70.0963 29.657C63.1784 29.657 57.9899 34.4786 57.9899 44.1742C57.9899 53.5029 62.6543 58.4293 69.9391 58.4293C72.4023 58.4293 74.7606 57.9052 76.2805 57.1715ZM82.2329 61.731V24.7831H86.6352V61.731H82.2329ZM103.232 62.2551H103.18C96.9953 62.2551 92.1738 57.5384 92.1738 49.2054C92.1738 40.4532 97.3098 35.8412 103.546 35.8412C109.993 35.8412 114.552 40.7676 114.552 48.891C114.552 58.4293 108.63 62.2551 103.232 62.2551ZM103.337 58.901H103.389C107.529 58.901 110.045 54.2366 110.045 48.9958C110.045 44.8031 108.316 39.1954 103.389 39.1954C98.5152 39.1954 96.6809 44.5411 96.6809 49.1006C96.6809 54.2366 99.1441 58.901 103.337 58.901ZM139.343 36.3653V54.8131C139.343 57.4859 139.447 59.7395 139.552 61.731H135.674L135.412 58.0624H135.307C134.259 59.8443 131.796 62.2551 127.813 62.2551C123.672 62.2551 119.847 59.6871 119.847 51.5638V36.3653H124.249V50.8301C124.249 55.3896 125.507 58.5865 129.228 58.5865C132.11 58.5865 133.945 56.3854 134.573 54.6035C134.783 53.9222 134.94 53.136 134.94 52.2451V36.3653H139.343ZM161.925 24.7831H166.327V55.3372C166.327 57.4335 166.432 60.054 166.536 61.731H162.658L162.396 57.6956H162.239C161.034 60.2112 158.308 62.2551 154.64 62.2551C149.032 62.2551 144.787 57.2239 144.787 49.3102C144.787 40.7152 149.556 35.8412 155.059 35.8412C158.361 35.8412 160.719 37.3611 161.82 39.405H161.925V24.7831ZM161.925 51.5638V46.4802C161.925 45.9037 161.872 45.17 161.767 44.5935C161.191 41.7634 158.99 39.405 155.95 39.405C151.6 39.405 149.242 43.7549 149.242 49.153C149.242 54.3414 151.443 58.6389 155.845 58.6389C158.361 58.6389 160.824 56.9619 161.715 53.4505C161.872 52.9264 161.925 52.2975 161.925 51.5638ZM174.918 62.2551H174.866C173.189 62.2551 171.931 60.8925 171.931 59.0582C171.931 57.1715 173.189 55.8089 174.918 55.8089C176.7 55.8089 177.905 57.1191 177.905 59.0582C177.905 60.8925 176.752 62.2551 174.918 62.2551ZM178.279 72.632L177.807 69.1206C179.641 68.911 181.319 68.3869 182.314 67.1815C183.467 65.7665 183.939 63.775 183.939 58.0624V36.3653H188.341V59.6871C188.341 64.7183 187.555 67.7056 185.459 69.9068C183.572 71.7935 180.48 72.5796 178.279 72.632ZM186.14 32.1727H186.088C184.463 32.1727 183.415 30.9148 183.415 29.395C183.415 27.7703 184.568 26.5649 186.193 26.5649C187.817 26.5649 188.865 27.7703 188.865 29.395C188.865 30.9148 187.817 32.1727 186.14 32.1727ZM193.559 60.5256L194.66 57.1715C195.865 57.9576 198.066 58.8486 200.163 58.8486C203.202 58.8486 204.722 57.2763 204.722 55.0752C204.722 52.9788 203.569 51.7734 200.425 50.3584C196.232 48.5765 194.188 46.1657 194.188 43.126C194.188 39.0382 197.437 35.8412 202.416 35.8412C204.827 35.8412 206.819 36.5226 208.129 37.3087L207.028 40.558C206.032 39.9291 204.408 39.1954 202.364 39.1954C199.796 39.1954 198.433 40.7676 198.433 42.6019C198.433 44.5935 199.691 45.5368 202.731 46.9518C206.661 48.6289 208.967 50.8825 208.967 54.6035C208.967 59.2678 205.508 62.2027 200.058 62.2027C197.542 62.2027 195.131 61.5214 193.559 60.5256Z" fill="#FFFBF7"/>
</g>
<g filter="url(#filter3_d_2_90)">
<path d="M110.115 192.596L47.9753 192.511C48.0723 184.971 49.9014 178.387 53.4625 172.758C57.0236 167.13 61.8837 162.24 68.0427 158.088C70.9924 155.926 74.0719 153.85 77.2813 151.861C80.4908 149.785 83.4406 147.579 86.1304 145.243C88.8203 142.907 91.0338 140.397 92.7708 137.712C94.508 134.941 95.4223 131.779 95.5139 128.226C95.5162 126.579 95.3019 124.846 94.8711 123.025C94.527 121.118 93.7927 119.384 92.6682 117.822C91.5438 116.174 89.9857 114.828 87.9938 113.786C86.002 112.656 83.4028 112.089 80.1961 112.085C77.2495 112.081 74.7786 112.684 72.7836 113.895C70.8754 115.019 69.3132 116.62 68.097 118.698C66.9676 120.69 66.0976 123.072 65.4871 125.845C64.9633 128.617 64.6559 131.607 64.5648 134.813L49.7448 134.793C49.7517 129.766 50.4081 125.131 51.714 120.886C53.1066 116.554 55.1484 112.83 57.8394 109.714C60.5303 106.598 63.7837 104.176 67.5994 102.448C71.5019 100.633 76.0098 99.7291 81.1231 99.7362C86.6698 99.7438 91.3052 100.66 95.0294 102.485C98.7535 104.31 101.74 106.611 103.99 109.388C106.326 112.164 107.969 115.2 108.917 118.494C109.866 121.702 110.339 124.78 110.335 127.726C110.33 131.366 109.762 134.659 108.631 137.604C107.5 140.549 105.98 143.277 104.07 145.788C102.16 148.212 99.9899 150.462 97.5604 152.539C95.1309 154.616 92.6149 156.562 90.0124 158.378C87.4098 160.195 84.8075 161.925 82.2052 163.568C79.6029 165.211 77.174 166.854 74.9184 168.498C72.7495 170.141 70.8404 171.872 69.1912 173.69C67.5422 175.421 66.413 177.283 65.8035 179.275L110.134 179.336L110.115 192.596ZM116.197 175.325L133.989 175.349L133.966 192.629L116.174 192.605L116.197 175.325ZM171.554 99.8607C178.054 99.8697 183.339 101.394 187.408 104.433C191.564 107.385 194.765 111.203 197.012 115.886C199.346 120.482 200.899 125.555 201.671 131.102C202.53 136.65 202.956 142.024 202.949 147.224C202.942 152.424 202.501 157.797 201.627 163.342C200.839 168.888 199.272 173.999 196.926 178.676C194.666 183.266 191.454 187.075 187.29 190.103C183.213 193.044 177.924 194.51 171.424 194.501C164.924 194.492 159.596 193.011 155.44 190.059C151.371 187.02 148.17 183.202 145.836 178.605C143.589 173.922 142.036 168.807 141.177 163.259C140.405 157.711 140.022 152.337 140.029 147.137C140.036 141.937 140.434 136.565 141.221 131.019C142.096 125.474 143.663 120.406 145.922 115.815C148.269 111.139 151.481 107.33 155.558 104.389C159.722 101.361 165.054 99.8518 171.554 99.8607ZM171.441 182.151C174.648 182.155 177.336 181.249 179.505 179.432C181.674 177.528 183.368 175.017 184.585 171.899C185.89 168.694 186.805 164.968 187.331 160.723C187.856 156.477 188.123 151.97 188.129 147.204C188.136 142.437 187.882 137.973 187.368 133.813C186.853 129.565 185.949 125.837 184.653 122.629C183.444 119.42 181.758 116.905 179.593 115.082C177.429 113.172 174.744 112.215 171.537 112.211C168.244 112.206 165.513 113.156 163.343 115.059C161.261 116.877 159.567 119.388 158.263 122.592C157.045 125.797 156.173 129.523 155.648 133.769C155.122 137.928 154.856 142.391 154.849 147.158C154.843 151.924 155.096 156.431 155.611 160.679C156.125 164.926 156.986 168.654 158.195 171.862C159.491 174.984 161.177 177.5 163.255 179.409C165.419 181.232 168.148 182.146 171.441 182.151Z" fill="url(#paint2_linear_2_90)"/>
</g>
<path d="M203.693 332.967H47.2538C66.2783 310.385 92.2249 292.566 125.473 283.318C158.722 292.566 184.669 310.385 203.693 332.967Z" fill="url(#paint3_linear_2_90)"/>
<path d="M47.2538 332.967H38.2136C58.1372 307.51 86.0841 287.235 122.596 276.856H128.351C164.863 287.236 192.81 307.51 212.733 332.967H203.693C184.669 310.385 158.722 292.566 125.473 283.318C92.2249 292.566 66.2783 310.385 47.2538 332.967Z" fill="url(#paint4_linear_2_90)"/>
<defs>
<filter id="filter0_i_2_90" x="9.03841" y="7.31828" width="232.87" height="69.7868" filterUnits="userSpaceOnUse" color-interpolation-filters="sRGB">
<feFlood flood-opacity="0" result="BackgroundImageFix"/>
<feBlend mode="normal" in="SourceGraphic" in2="BackgroundImageFix" result="shape"/>
<feColorMatrix in="SourceAlpha" type="matrix" values="0 0 0 0 0 0 0 0 0 0 0 0 0 0 0 0 0 0 127 0" result="hardAlpha"/>
<feOffset/>
<feGaussianBlur stdDeviation="2"/>
<feComposite in2="hardAlpha" operator="arithmetic" k2="-1" k3="1"/>
<feColorMatrix type="matrix" values="0 0 0 0 0 0 0 0 0 0 0 0 0 0 0 0 0 0 0.86 0"/>
<feBlend mode="normal" in2="shape" result="effect1_innerShadow_2_90"/>
</filter>
<filter id="filter1_i_2_90" x="6.99319" y="83.017" width="236.96" height="186.301" filterUnits="userSpaceOnUse" color-interpolation-filters="sRGB">
<feFlood flood-opacity="0" result="BackgroundImageFix"/>
<feBlend mode="normal" in="SourceGraphic" in2="BackgroundImageFix" result="shape"/>
<feColorMatrix in="SourceAlpha" type="matrix" values="0 0 0 0 0 0 0 0 0 0 0 0 0 0 0 0 0 0 127 0" result="hardAlpha"/>
<feOffset/>
<feGaussianBlur stdDeviation="2"/>
<feComposite in2="hardAlpha" operator="arithmetic" k2="-1" k3="1"/>
<feColorMatrix type="matrix" values="0 0 0 0 0 0 0 0 0 0 0 0 0 0 0 0 0 0 0.86 0"/>
<feBlend mode="normal" in2="shape" result="effect1_innerShadow_2_90"/>
</filter>
<filter id="filter2_d_2_90" x="40.0666" y="23.7831" width="171.901" height="53.8489" filterUnits="userSpaceOnUse" color-interpolation-filters="sRGB">
<feFlood flood-opacity="0" result="BackgroundImageFix"/>
<feColorMatrix in="SourceAlpha" type="matrix" values="0 0 0 0 0 0 0 0 0 0 0 0 0 0 0 0 0 0 127 0" result="hardAlpha"/>
<feOffset dy="2"/>
<feGaussianBlur stdDeviation="1.5"/>
<feComposite in2="hardAlpha" operator="out"/>
<feColorMatrix type="matrix" values="0 0 0 0 0 0 0 0 0 0 0 0 0 0 0 0 0 0 0.25 0"/>
<feBlend mode="normal" in2="BackgroundImageFix" result="effect1_dropShadow_2_90"/>
<feBlend mode="normal" in="SourceGraphic" in2="effect1_dropShadow_2_90" result="shape"/>
</filter>
<filter id="filter3_d_2_90" x="45.9728" y="99.6907" width="159.042" height="98.8533" filterUnits="userSpaceOnUse" color-interpolation-filters="sRGB">
<feFlood flood-opacity="0" result="BackgroundImageFix"/>
<feColorMatrix in="SourceAlpha" type="matrix" values="0 0 0 0 0 0 0 0 0 0 0 0 0 0 0 0 0 0 127 0" result="hardAlpha"/>
<feOffset dy="2"/>
<feGaussianBlur stdDeviation="1"/>
<feComposite in2="hardAlpha" operator="out"/>
<feColorMatrix type="matrix" values="0 0 0 0 0 0 0 0 0 0 0 0 0 0 0 0 0 0 0.27 0"/>
<feBlend mode="normal" in2="BackgroundImageFix" result="effect1_dropShadow_2_90"/>
<feBlend mode="normal" in="SourceGraphic" in2="effect1_dropShadow_2_90" result="shape"/>
</filter>
<linearGradient id="paint0_linear_2_90" x1="9.03841" y1="77.105" x2="217.498" y2="10.7536" gradientUnits="userSpaceOnUse">
<stop stop-color="#A32B11"/>
<stop offset="1" stop-color="#B02F10"/>
</linearGradient>
<linearGradient id="paint1_linear_2_90" x1="125.473" y1="83.017" x2="125.473" y2="269.318" gradientUnits="userSpaceOnUse">
<stop stop-color="#356B9F"/>
<stop offset="1" stop-color="#1F4B7E"/>
</linearGradient>
<linearGradient id="paint2_linear_2_90" x1="125.365" y1="100.507" x2="125.366" y2="192.617" gradientUnits="userSpaceOnUse">
<stop stop-color="#D4E9FB"/>
<stop offset="1" stop-color="#D9D7D6"/>
</linearGradient>
<linearGradient id="paint3_linear_2_90" x1="125.473" y1="469.62" x2="125.473" y2="283.318" gradientUnits="userSpaceOnUse">
<stop stop-color="#356B9F" stop-opacity="0"/>
<stop offset="0.732631" stop-color="#255487" stop-opacity="0"/>
<stop offset="0.867359" stop-color="#224F82" stop-opacity="0.3"/>
<stop offset="1" stop-color="#1F4B7E" stop-opacity="0.42"/>
</linearGradient>
<linearGradient id="paint4_linear_2_90" x1="125.473" y1="274.58" x2="125.473" y2="332.967" gradientUnits="userSpaceOnUse">
<stop stop-color="#D9D9D9" stop-opacity="0.42"/>
<stop offset="0.501786" stop-color="#D9D9D9" stop-opacity="0.3"/>
<stop offset="1" stop-color="#D9D9D9" stop-opacity="0"/>
</linearGradient>
</defs>
</svg>
